<?xml version="1.0" encoding="UTF-8" standalone="no"?>
<svg
   xmlns:dc="http://purl.org/dc/elements/1.1/"
   xmlns:cc="http://creativecommons.org/ns#"
   xmlns:rdf="http://www.w3.org/1999/02/22-rdf-syntax-ns#"
   xmlns:svg="http://www.w3.org/2000/svg"
   xmlns="http://www.w3.org/2000/svg"
   xmlns:sodipodi="http://sodipodi.sourceforge.net/DTD/sodipodi-0.dtd"
   xmlns:inkscape="http://www.inkscape.org/namespaces/inkscape"
   version="1.1"
   id="svg62"
   width="108.8"
   height="103.36"
   viewBox="0 0 108.8 103.36"
   sodipodi:docname="Logo.svg"
   inkscape:version="1.0.2 (e86c870879, 2021-01-15)">
  <metadata
     id="metadata68">
    <rdf:RDF>
      <cc:Work
         rdf:about="">
        <dc:format>image/svg+xml</dc:format>
        <dc:type
           rdf:resource="http://purl.org/dc/dcmitype/StillImage" />
        <dc:title></dc:title>
      </cc:Work>
    </rdf:RDF>
  </metadata>
  <defs
     id="defs66" />
  <sodipodi:namedview
     pagecolor="#ffffff"
     bordercolor="#666666"
     borderopacity="1"
     objecttolerance="10"
     gridtolerance="10"
     guidetolerance="10"
     inkscape:pageopacity="0"
     inkscape:pageshadow="2"
     inkscape:window-width="3840"
     inkscape:window-height="2123"
     id="namedview64"
     showgrid="false"
     inkscape:zoom="7.9237616"
     inkscape:cx="37.830827"
     inkscape:cy="30.360122"
     inkscape:window-x="0"
     inkscape:window-y="0"
     inkscape:window-maximized="1"
     inkscape:current-layer="g70" />
  <g
     inkscape:groupmode="layer"
     inkscape:label="Image"
     id="g70">
    <path
       style="fill:#fbb01c;stroke-width:0.32"
       d="m 68.778189,99.720093 c -2.385837,-1.61934 -2.3477,-3.126313 0.219552,-8.675494 1.145539,-2.476112 3.564096,-9.340326 4.679116,-13.28 0.541933,-1.914797 2.864666,-8.661722 4.682013,-13.6 0.783891,-2.130074 2.217415,-7.85112 3.370538,-13.451494 0.908307,-4.411373 1.790342,-7.446768 3.018723,-10.388506 1.220528,-2.922918 3.840531,-9.958429 4.468771,-12 0.297875,-0.968 0.98296,-2.670009 1.522407,-3.782243 0.561267,-1.157214 0.860294,-2.140092 0.699059,-2.29775 -0.424967,-0.415542 -4.005933,-1.176244 -8.292586,-1.761588 -2.106045,-0.287582 -4.765171,-0.792033 -5.909171,-1.121003 -3.929315,-1.129917 -7.481683,-1.406948 -18.24,-1.42244 -9.895834,-0.01425 -10.547373,0.02175 -13.44,0.742608 -6.421818,1.600352 -9.367654,2.779445 -12.072688,4.832187 -0.91998,0.698134 -2.86398,1.942337 -4.320001,2.764895 -1.456021,0.822557 -3.223311,1.885297 -3.927311,2.361643 -0.704,0.476346 -1.64,1.105581 -2.08,1.398299 -0.44,0.292718 -1.34,0.892486 -2,1.332818 -0.66,0.440331 -1.2,0.963891 -1.2,1.163467 0,0.546416 2.047323,3.487494 3.255596,4.676819 0.585422,0.576243 3.34148,3.240243 6.124572,5.92 2.783092,2.67976 5.578971,5.548797 6.213061,6.375645 0.634093,0.826845 1.957017,2.040009 2.939833,2.69592 0.982816,0.65591 3.681482,3.059971 5.997034,5.342355 2.723392,2.684381 4.374691,4.08663 4.676205,3.970928 0.256361,-0.09837 1.130061,-1.761546 1.941552,-3.695933 0.811494,-1.934387 2.112073,-4.79047 2.890179,-6.346848 1.491968,-2.984262 2.117235,-4.827721 2.120182,-6.250893 0.0022,-1.112124 -0.248531,-1.240108 -1.777526,-0.90694 -4.825389,1.051452 -6.129002,1.387385 -7.536019,1.94198 -2.108429,0.831066 -4.016173,0.799437 -5.706842,-0.09461 -2.986909,-1.579513 -4.280329,-5.05072 -2.958566,-7.940009 0.864797,-1.890381 1.982934,-2.877895 4.860739,-4.292877 3.014525,-1.48221 4.638179,-2.040663 6.607558,-2.272659 0.853844,-0.100585 2.416442,-0.374515 3.472442,-0.608735 1.056,-0.234219 4.684637,-0.503749 8.063635,-0.598955 l 0.767954,-0.02164 0.767955,-0.02164 0.767954,-0.02164 0.767954,-0.02164 0.767955,-0.02164 0.767954,-0.02164 0.969222,0.01265 0.955407,0.220107 1.627645,0.747471 c 1.990217,0.913977 2.032487,1.062439 3.076515,3.583232 1.001309,2.417657 1.041815,2.663801 0.729812,4.435065 -0.343642,1.950887 -1.780992,4.140403 -3.425344,5.217824 -0.50809,0.332912 -0.938503,1.115104 -1.268701,2.305616 -0.274855,0.990976 -0.583863,2.017773 -0.686682,2.281773 -0.102822,0.264 -0.434272,1.128 -0.736553,1.92 -0.302282,0.792 -1.049508,2.603715 -1.660503,4.026032 -0.610992,1.422317 -1.504278,4.014317 -1.985075,5.76 -0.4808,1.745683 -1.36759,4.638192 -1.970643,6.427802 -0.603053,1.789606 -1.099623,3.589606 -1.103488,4 -0.02035,2.159632 -2.807072,5.4668 -5.675789,6.735766 -1.258899,0.55687 -1.853741,0.621357 -4.056214,0.439725 -3.598624,-0.296772 -4.701546,-0.653883 -6.562416,-2.124817 -1.735367,-1.371725 -2.763533,-2.801242 -3.669194,-5.101479 -0.311174,-0.790332 -1.201078,-2.116163 -1.977565,-2.946291 -0.776486,-0.830125 -1.411795,-1.646736 -1.411795,-1.814688 0,-0.167952 -1.26,-1.311149 -2.8,-2.540438 -3.21793,-2.568679 -5.797778,-5.224525 -8.622047,-8.876039 C 23.145909,51.993585 19.621612,48.621412 16.479879,46.404599 14.420833,44.951732 11.606959,42.066791 8.0600099,37.772081 5.1748438,34.278666 4.196366,30.255544 5.5503161,27.45319 6.1810556,26.147709 7.9983893,24.626694 8.9621801,24.164599 9.9572627,23.687501 14.9148,21.934442 19.636611,19.316427 c 7.878348,-4.368161 9.001091,-5.021862 10.4,-6.055255 2.468539,-1.823543 5.058896,-2.691196 9.455283,-3.167094 1.839594,-0.1991309 5.360717,-0.6371079 7.824717,-0.9732816 6.998816,-0.9548778 12.389318,-1.5570349 17.561322,-1.9617239 5.32743,-0.4168499 7.859062,-0.1792189 12.038678,1.1300087 1.853597,0.5806217 3.483357,0.7983942 7.15848,0.9565321 7.110755,0.3059709 10.584989,0.7599527 14.01911,1.8318937 2.662449,0.831067 3.274289,1.158592 4.355439,2.331508 0.81779,0.887188 1.50386,2.103826 1.96098,3.477483 0.62998,1.893087 0.67179,2.398003 0.40191,4.853985 -0.26128,2.377794 -0.47733,3.02761 -1.63002,4.902615 -0.73085,1.188826 -1.81273,2.765112 -2.40417,3.502858 -0.970705,1.210836 -2.792379,5.967398 -3.530564,9.218643 -0.262858,1.157722 -1.811693,4.267936 -3.016999,6.058432 -0.481897,0.715862 -1.136972,2.021568 -1.455724,2.901568 -0.318752,0.88 -0.769725,2.032 -1.002164,2.56 -1.073827,2.43929 -3.161584,10.075366 -4.009024,14.6632 -0.514384,2.784762 -1.227177,5.880762 -1.583987,6.88 -0.356809,0.999242 -1.133001,3.207498 -1.724873,4.907235 -0.591876,1.699741 -1.594141,4.196576 -2.227264,5.548525 -0.63312,1.351946 -1.15113,2.534944 -1.15113,2.62888 0,0.09394 -0.809286,1.773101 -1.798413,3.731478 -2.329587,4.612356 -5.528237,9.764074 -6.428774,10.354132 -1.200215,0.786411 -3.012365,0.840731 -4.071235,0.122044 z"
       id="path74"
       sodipodi:nodetypes="ssssssssssssssssssssssssssscssssssssccccccccssssssssssssssssssssssssssssssssssssssssssssssss"
       inkscape:export-xdpi="96"
       inkscape:export-ydpi="96" />
  </g>
</svg>
