<?xml version="1.0" encoding="UTF-8" standalone="no"?>
<svg
   xmlns:dc="http://purl.org/dc/elements/1.1/"
   xmlns:cc="http://creativecommons.org/ns#"
   xmlns:rdf="http://www.w3.org/1999/02/22-rdf-syntax-ns#"
   xmlns:svg="http://www.w3.org/2000/svg"
   xmlns="http://www.w3.org/2000/svg"
   xmlns:sodipodi="http://sodipodi.sourceforge.net/DTD/sodipodi-0.dtd"
   xmlns:inkscape="http://www.inkscape.org/namespaces/inkscape"
   version="1.1"
   id="svg2"
   width="508.79999"
   height="126.72"
   viewBox="0 0 508.79999 126.72"
   sodipodi:docname="TokLabsFont.svg"
   inkscape:version="1.0.2 (e86c870879, 2021-01-15)">
  <metadata
     id="metadata8">
    <rdf:RDF>
      <cc:Work
         rdf:about="">
        <dc:format>image/svg+xml</dc:format>
        <dc:type
           rdf:resource="http://purl.org/dc/dcmitype/StillImage" />
        <dc:title></dc:title>
      </cc:Work>
    </rdf:RDF>
  </metadata>
  <defs
     id="defs6" />
  <sodipodi:namedview
     pagecolor="#ffffff"
     bordercolor="#666666"
     borderopacity="1"
     objecttolerance="10"
     gridtolerance="10"
     guidetolerance="10"
     inkscape:pageopacity="0"
     inkscape:pageshadow="2"
     inkscape:window-width="3840"
     inkscape:window-height="2123"
     id="namedview4"
     showgrid="false"
     inkscape:zoom="2.6120284"
     inkscape:cx="254.39999"
     inkscape:cy="63.360001"
     inkscape:window-x="0"
     inkscape:window-y="0"
     inkscape:window-maximized="1"
     inkscape:current-layer="g10" />
  <g
     inkscape:groupmode="layer"
     inkscape:label="Image"
     id="g10">
    <g
       id="g14"
       transform="translate(27.440659,6.3139389)">
      <path
         style="fill:#fab120;stroke-width:0.32"
         d="M 66.139868,97.02249 C 64.912479,95.741373 65.014341,94.348352 66.607759,90.623683 67.338027,88.916659 68.986072,84.352 70.270075,80.48 c 1.284004,-3.872 3.122845,-9.344 4.086317,-12.16 0.963469,-2.816 2.412374,-8.054566 3.219789,-11.641261 0.807417,-3.586694 1.886445,-7.690694 2.397837,-9.12 1.36831,-3.82432 4.365609,-11.840531 5.466732,-14.620665 0.527588,-1.332059 0.959248,-2.595623 0.959248,-2.80792 0,-0.588606 -1.308585,-0.969896 -6.221302,-1.81274 -2.474282,-0.424497 -5.938697,-1.091216 -7.698697,-1.481597 -2.933578,-0.65069 -4.079197,-0.711701 -13.76,-0.732801 l -10.56,-0.02302 -3.36,0.922527 C 40.61549,28.151432 38.30509,29.179777 34.680511,31.506649 33.11823,32.509587 30.075999,34.465757 27.919999,35.85369 25.763999,37.241622 24,38.587306 24,38.844093 c 0,0.256787 0.502821,1.125619 1.117381,1.930736 1.385494,1.815094 13.334257,13.744368 16.162618,16.136256 1.144,0.967456 3.335002,2.95824 4.868893,4.423965 C 47.682786,62.800771 49.069154,64 49.229711,64 c 0.509453,0 0.879334,-0.678704 3.362675,-6.170298 2.898311,-6.409248 3.336413,-7.798044 2.670115,-8.464342 -0.408038,-0.408038 -0.779388,-0.396624 -2.984265,0.09173 -1.385031,0.306765 -3.296781,0.824416 -4.248333,1.150333 -3.282227,1.124201 -5.430989,0.694768 -7.326617,-1.464234 -1.193575,-1.359405 -1.559872,-2.998406 -1.050256,-4.69936 0.587814,-1.961942 1.948339,-3.226275 5.066108,-4.707917 3.564131,-1.69376 7.93192,-2.498899 15.227792,-2.80702 5.176874,-0.218631 5.177334,-0.218589 6.866681,0.637468 1.816944,0.920717 2.627408,1.961207 3.449703,4.42881 0.735533,2.207235 0.04374,4.436621 -2.056387,6.627018 -0.948695,0.989472 -1.697511,2.134934 -1.94393,2.973625 -0.220448,0.750304 -1.056912,3.020189 -1.858806,5.044189 -1.438976,3.632 -5.204192,15.370992 -5.204192,16.225357 0,1.545139 -2.385175,4.336761 -4.742656,5.550832 -1.226467,0.631613 -1.673264,0.687814 -3.955232,0.497504 -1.414915,-0.118 -3.044816,-0.411859 -3.622003,-0.653024 -1.604515,-0.67041 -3.640026,-2.680035 -4.538074,-4.480362 -0.873721,-1.751561 -4.071497,-6.121875 -4.762252,-6.508441 -1.264864,-0.707853 -5.992088,-5.403693 -8.631798,-8.57449 -1.665757,-2.000893 -4.1445,-4.540054 -5.508317,-5.642579 -3.218857,-2.60216 -9.259224,-8.633773 -10.586623,-10.571283 -1.36188,-1.987837 -1.973319,-3.787485 -1.971848,-5.803748 0.0022,-3.051222 1.397647,-4.41927 6.878804,-6.743866 3.554285,-1.507397 11.121041,-5.571031 14.681059,-7.884283 3.275657,-2.128481 4.648694,-2.46907 15.380271,-3.815172 17.824541,-2.235797 19.722774,-2.297182 25.838438,-0.83556 2.046727,0.489161 4.819523,0.866331 7.30023,0.993014 7.827389,0.399725 12.960877,1.539537 14.829907,3.292754 1.568643,1.471442 2.445434,3.746682 2.432922,6.313347 -0.0121,2.482062 -0.418151,3.894555 -1.716157,5.969862 -0.478205,0.764576 -1.353961,2.159239 -1.946121,3.099252 -0.59216,0.940012 -1.607597,3.388012 -2.256528,5.44 -0.657776,2.079958 -1.85946,4.934492 -2.715648,6.450886 -2.7144,4.80745 -4.313235,9.637987 -6.402599,19.34407 -1.554096,7.219495 -4.755171,15.61601 -8.545823,22.41593 -3.469264,6.223392 -4.318381,7.2 -6.260084,7.2 -1.094403,0 -1.558147,-0.185811 -2.239999,-0.89751 z M 170.88,95.86455 C 164.4476,94.507936 159.44183,90.695277 156.35297,84.8 c -2.25039,-4.295005 -3.30132,-9.879594 -2.95073,-15.68 0.8776,-14.519453 9.69256,-23.344362 23.33125,-23.357584 10.51698,-0.01021 18.47522,6.283114 21.03916,16.637584 0.95694,3.864602 1.18953,10.706259 0.49866,14.668416 -1.59505,9.147779 -6.8749,15.652576 -14.75131,18.173686 -3.17928,1.017632 -9.33007,1.320525 -12.64,0.622448 z m 10.79979,-4.21878 c 5.74454,-1.496263 9.79335,-5.93026 11.65678,-12.76577 1.00323,-3.680099 1.00441,-12.261744 0.002,-15.936154 -1.87094,-6.859196 -6.12913,-11.29358 -12.21881,-12.724368 -2.47149,-0.580684 -7.41445,-0.513388 -9.88635,0.134596 -2.95194,0.773824 -5.02317,1.990828 -7.43197,4.366854 -3.40178,3.355498 -5.08207,7.27608 -5.75008,13.41649 -1.19732,11.005948 3.41757,20.288092 11.499,23.128486 3.56968,1.25464 8.21246,1.400045 12.12919,0.379866 z m 116.8802,4.09366 c -1.144,-0.299024 -2.73295,-0.926598 -3.53101,-1.394614 -2.00657,-1.176739 -4.34895,-3.773651 -5.37137,-5.955034 -0.78683,-1.678752 -0.85762,-2.159945 -0.85762,-5.829782 0,-3.653069 0.0731,-4.155981 0.84326,-5.798403 1.06794,-2.277607 2.81293,-4.223283 5.14389,-5.735491 2.98387,-1.935786 7.12234,-3.062916 16.38442,-4.462381 4.88832,-0.738605 8.39002,-1.412128 8.53144,-1.640951 0.34221,-0.553724 0.0266,-3.542624 -0.68523,-6.488944 -1.22898,-5.086899 -3.94802,-7.742272 -8.70627,-8.502406 -4.37154,-0.698358 -9.89762,0.815133 -14.48335,3.966723 -1.38864,0.954349 -2.63805,1.665184 -2.77647,1.579632 -0.13843,-0.08555 -0.25169,-1.145245 -0.25169,-2.354873 0,-2.076474 0.0534,-2.237354 0.95613,-2.880148 3.11159,-2.215648 9.06407,-4.10864 13.76387,-4.377152 7.91863,-0.452409 13.22631,2.933194 15.60324,9.95282 L 323.99737,58.4 v 18.24 18.24 h -1.92 -1.92 l -0.0904,-3.994448 c -0.0498,-2.196944 -0.21492,-4.118902 -0.36703,-4.271014 -0.15543,-0.155424 -0.84563,0.561417 -1.57573,1.636528 -4.36002,6.424278 -12.18221,9.417891 -19.56419,7.488364 z m 7.52,-3.587168 c 4.97358,-0.699542 9.65294,-4.290992 11.85575,-9.099376 1.31187,-2.863603 1.70393,-4.762544 1.9577,-9.48207 0.18249,-3.394086 0.14652,-3.815571 -0.3418,-4.002954 -0.64926,-0.249142 -13.30311,1.561255 -17.06938,2.442132 -4.5168,1.056416 -7.15322,2.728185 -8.43395,5.348009 -0.63142,1.29161 -0.74589,2.030608 -0.75618,4.881997 -0.0113,3.134742 0.0512,3.474403 0.93313,5.06647 1.49457,2.698128 3.79536,4.289626 6.96416,4.817232 2.31108,0.384794 2.35598,0.385056 4.89057,0.02854 z m 46.47204,3.666692 C 348.56198,94.85223 345.21315,92.468454 342.01715,88.32 l -0.86288,-1.12 -0.0221,3.52 c -0.0122,1.936 -0.14122,3.707862 -0.28685,3.937472 -0.18147,0.286144 -0.85943,0.386806 -2.15511,0.32 L 336.79999,94.88 V 59.52 24.16 l 1.89031,-0.09747 c 1.29568,-0.06681 1.97363,0.03386 2.1551,0.32 0.14563,0.229609 0.26701,7.437471 0.2697,16.017471 0.003,8.58 0.11616,15.6 0.25213,15.6 0.13596,0 0.53196,-0.533082 0.88,-1.184627 1.1887,-2.225434 4.71334,-5.386304 7.5839,-6.801251 7.83491,-3.861908 16.80112,-2.718096 22.31008,2.84607 2.59389,2.619862 4.25187,5.666493 5.35798,9.845482 0.72285,2.730979 0.8336,3.813792 0.86074,8.414326 0.035,5.929466 -0.43904,8.918762 -2.09539,13.213789 -1.91037,4.953753 -5.76474,9.535213 -9.8569,11.716313 -3.92211,2.090468 -9.55834,2.810007 -13.85561,1.768852 z m 9.2471,-4.149175 c 2.22873,-0.630761 5.2567,-2.716998 6.86147,-4.727501 2.82304,-3.536736 4.47088,-7.972953 5.11421,-13.768176 1.38016,-12.432448 -3.91555,-21.890048 -13.02893,-23.26839 -4.0703,-0.61561 -8.90905,0.457738 -12.18243,2.702339 -3.04512,2.088077 -5.97034,6.622106 -6.94771,10.768874 -0.66768,2.832729 -0.68362,13.808595 -0.0237,16.288566 1.09011,4.09624 4.28192,8.622919 7.34643,10.418848 3.84541,2.253546 8.48077,2.824992 12.86061,1.58544 z m 31.00086,4.177888 c -2.50592,-0.55007 -4.54944,-1.359155 -5.84,-2.312211 -0.9847,-0.72719 -1.04,-0.876746 -1.04,-2.812854 0,-1.124656 0.12842,-2.124202 0.28538,-2.221213 0.15699,-0.09701 1.12899,0.331597 2.16,0.952461 5.71577,3.441875 13.52675,3.783036 17.68291,0.772342 2.96666,-2.14904 4.04726,-7.432294 2.17395,-10.628848 -1.22563,-2.09137 -3.16893,-3.473197 -8.54224,-6.074147 -10.84889,-5.251395 -13.73734,-8.587107 -13.37721,-15.448599 0.10784,-2.054598 0.33769,-3.032921 1.05945,-4.509235 2.34925,-4.805392 7.97226,-7.805363 14.63002,-7.805363 2.70016,0 6.62902,0.783882 8.56134,1.708147 l 1.4464,0.691853 0.094,2.32 c 0.0517,1.276 0.036,2.32 -0.035,2.32 -0.0709,0 -1.19321,-0.485997 -2.49401,-1.07999 -3.04707,-1.391424 -5.30282,-1.910871 -8.28506,-1.907866 -3.28224,0.0033 -5.6288,0.750013 -7.48128,2.380621 -1.83062,1.611389 -2.75654,3.338217 -2.98694,5.570611 -0.2704,2.619933 0.37929,4.69953 2.04816,6.555699 1.21792,1.354602 2.38998,2.077511 7.73165,4.768643 9.31558,4.69321 11.6039,6.640128 12.6856,10.793069 1.94035,7.449575 -2.69482,14.219818 -10.93005,15.964691 -2.67639,0.567072 -6.96925,0.568055 -9.54714,0.0022 z M 124.48,64.153584 c 0,-20.698995 -0.10947,-31.120208 -0.33126,-31.534621 C 123.83272,32.028477 123.38298,32 114.37347,32 h -9.44401 l 0.0953,-2 0.0953,-2 21.51334,-0.08225 21.51334,-0.08225 0.18892,0.752753 c 0.10391,0.414015 0.14291,1.315027 0.0867,2.00225 L 148.32,31.84 l -9.6,0.171971 c -5.28,0.09459 -9.63529,0.202586 -9.67843,0.24 -0.0431,0.03742 -0.11513,14.144029 -0.16,31.348029 l -0.0816,31.28 -2.16,0.09462 -2.16,0.09462 z M 208.78754,94.64 c -0.0838,-0.22 -0.11528,-16.168 -0.07,-35.44 l 0.0824,-35.04 1.89031,-0.09747 c 1.29567,-0.06681 1.97362,0.03386 2.1551,0.32 0.14563,0.229609 0.26699,10.389471 0.26969,22.577471 0.003,13.49856 0.12161,22.16 0.30351,22.16 0.16424,0 5.07609,-4.968 10.91523,-11.04 l 10.61662,-11.04 h 2.52477 c 1.38862,0 2.52477,0.127894 2.52477,0.284211 0,0.15632 -4.5,4.880304 -10,10.497751 -5.5,5.617443 -10.49785,10.7472 -11.10634,11.399459 l -1.10633,1.185923 11.90633,11.921968 c 6.54855,6.557081 11.9064,12.099426 11.9064,12.316325 0,0.281348 -0.77438,0.394362 -2.70216,0.394362 -2.3591,0 -2.80062,-0.09141 -3.47774,-0.72 -0.42657,-0.396 -5.43595,-5.544 -11.13195,-11.44 C 218.59214,76.984 213.74913,72.044845 213.52588,71.904099 213.20089,71.6992 213.12,73.878387 213.12,82.837926 c 0,6.154352 -0.0874,11.417508 -0.19424,11.695901 -0.24694,0.643504 -3.89786,0.737171 -4.13822,0.106173 z m 41.60113,0.0032 C 250.3042,94.421373 250.27219,79.336 250.31754,61.12 L 250.4,28 l 2.16,-0.09462 c 1.188,-0.05204 2.19422,-0.05204 2.23606,0 0.0418,0.05204 0.14983,14.206621 0.24,31.454621 l 0.16393,31.36 13.28,0.16 13.28,0.16 v 1.92 1.92 l -15.60887,0.08305 c -12.31664,0.06553 -15.64126,-0.0019 -15.76245,-0.32 z"
         id="path18" />
      <path
         style="fill:#484848;stroke-width:0.32"
         d="M 170.88,95.86455 C 164.4476,94.507936 159.44183,90.695277 156.35297,84.8 c -2.25039,-4.295005 -3.30132,-9.879594 -2.95073,-15.68 0.8776,-14.519453 9.69256,-23.344362 23.33125,-23.357584 10.51698,-0.01021 18.47522,6.283114 21.03916,16.637584 0.95694,3.864602 1.18953,10.706259 0.49866,14.668416 -1.59505,9.147779 -6.8749,15.652576 -14.75131,18.173686 -3.17928,1.017632 -9.33007,1.320525 -12.64,0.622448 z m 10.79979,-4.21878 c 5.74454,-1.496263 9.79335,-5.93026 11.65678,-12.76577 1.00323,-3.680099 1.00441,-12.261744 0.002,-15.936154 -1.87094,-6.859196 -6.12913,-11.29358 -12.21881,-12.724368 -2.47149,-0.580684 -7.41445,-0.513388 -9.88635,0.134596 -2.95194,0.773824 -5.02317,1.990828 -7.43197,4.366854 -3.40178,3.355498 -5.08207,7.27608 -5.75008,13.41649 -1.19732,11.005948 3.41757,20.288092 11.499,23.128486 3.56968,1.25464 8.21246,1.400045 12.12919,0.379866 z m 116.8802,4.09366 c -1.144,-0.299024 -2.73295,-0.926598 -3.53101,-1.394614 -2.00657,-1.176739 -4.34895,-3.773651 -5.37137,-5.955034 -0.78683,-1.678752 -0.85762,-2.159945 -0.85762,-5.829782 0,-3.653069 0.0731,-4.155981 0.84326,-5.798403 1.06794,-2.277607 2.81293,-4.223283 5.14389,-5.735491 2.98387,-1.935786 7.12234,-3.062916 16.38442,-4.462381 4.88832,-0.738605 8.39002,-1.412128 8.53144,-1.640951 0.34221,-0.553724 0.0266,-3.542624 -0.68523,-6.488944 -1.22898,-5.086899 -3.94802,-7.742272 -8.70627,-8.502406 -4.37154,-0.698358 -9.89762,0.815133 -14.48335,3.966723 -1.38864,0.954349 -2.63805,1.665184 -2.77647,1.579632 -0.13843,-0.08555 -0.25169,-1.145245 -0.25169,-2.354873 0,-2.076474 0.0534,-2.237354 0.95613,-2.880148 3.11159,-2.215648 9.06407,-4.10864 13.76387,-4.377152 7.91863,-0.452409 13.22631,2.933194 15.60324,9.95282 L 323.99737,58.4 v 18.24 18.24 h -1.92 -1.92 l -0.0904,-3.994448 c -0.0498,-2.196944 -0.21492,-4.118902 -0.36703,-4.271014 -0.15543,-0.155424 -0.84563,0.561417 -1.57573,1.636528 -4.36002,6.424278 -12.18221,9.417891 -19.56419,7.488364 z m 7.52,-3.587168 c 4.97358,-0.699542 9.65294,-4.290992 11.85575,-9.099376 1.31187,-2.863603 1.70393,-4.762544 1.9577,-9.48207 0.18249,-3.394086 0.14652,-3.815571 -0.3418,-4.002954 -0.64926,-0.249142 -13.30311,1.561255 -17.06938,2.442132 -4.5168,1.056416 -7.15322,2.728185 -8.43395,5.348009 -0.63142,1.29161 -0.74589,2.030608 -0.75618,4.881997 -0.0113,3.134742 0.0512,3.474403 0.93313,5.06647 1.49457,2.698128 3.79536,4.289626 6.96416,4.817232 2.31108,0.384794 2.35598,0.385056 4.89057,0.02854 z m 46.47204,3.666692 C 348.56198,94.85223 345.21315,92.468454 342.01715,88.32 l -0.86288,-1.12 -0.0221,3.52 c -0.0122,1.936 -0.14122,3.707862 -0.28685,3.937472 -0.18147,0.286144 -0.85943,0.386806 -2.15511,0.32 L 336.79999,94.88 V 59.52 24.16 l 1.89031,-0.09747 c 1.29568,-0.06681 1.97363,0.03386 2.1551,0.32 0.14563,0.229609 0.26701,7.437471 0.2697,16.017471 0.003,8.58 0.11616,15.6 0.25213,15.6 0.13596,0 0.53196,-0.533082 0.88,-1.184627 1.1887,-2.225434 4.71334,-5.386304 7.5839,-6.801251 7.83491,-3.861908 16.80112,-2.718096 22.31008,2.84607 2.59389,2.619862 4.25187,5.666493 5.35798,9.845482 0.72285,2.730979 0.8336,3.813792 0.86074,8.414326 0.035,5.929466 -0.43904,8.918762 -2.09539,13.213789 -1.91037,4.953753 -5.76474,9.535213 -9.8569,11.716313 -3.92211,2.090468 -9.55834,2.810007 -13.85561,1.768852 z m 9.2471,-4.149175 c 2.22873,-0.630761 5.2567,-2.716998 6.86147,-4.727501 2.82304,-3.536736 4.47088,-7.972953 5.11421,-13.768176 1.38016,-12.432448 -3.91555,-21.890048 -13.02893,-23.26839 -4.0703,-0.61561 -8.90905,0.457738 -12.18243,2.702339 -3.04512,2.088077 -5.97034,6.622106 -6.94771,10.768874 -0.66768,2.832729 -0.68362,13.808595 -0.0237,16.288566 1.09011,4.09624 4.28192,8.622919 7.34643,10.418848 3.84541,2.253546 8.48077,2.824992 12.86061,1.58544 z m 31.00086,4.177888 c -2.50592,-0.55007 -4.54944,-1.359155 -5.84,-2.312211 -0.9847,-0.72719 -1.04,-0.876746 -1.04,-2.812854 0,-1.124656 0.12842,-2.124202 0.28538,-2.221213 0.15699,-0.09701 1.12899,0.331597 2.16,0.952461 5.71577,3.441875 13.52675,3.783036 17.68291,0.772342 2.96666,-2.14904 4.04726,-7.432294 2.17395,-10.628848 -1.22563,-2.09137 -3.16893,-3.473197 -8.54224,-6.074147 -10.84889,-5.251395 -13.73734,-8.587107 -13.37721,-15.448599 0.10784,-2.054598 0.33769,-3.032921 1.05945,-4.509235 2.34925,-4.805392 7.97226,-7.805363 14.63002,-7.805363 2.70016,0 6.62902,0.783882 8.56134,1.708147 l 1.4464,0.691853 0.094,2.32 c 0.0517,1.276 0.036,2.32 -0.035,2.32 -0.0709,0 -1.19321,-0.485997 -2.49401,-1.07999 -3.04707,-1.391424 -5.30282,-1.910871 -8.28506,-1.907866 -3.28224,0.0033 -5.6288,0.750013 -7.48128,2.380621 -1.83062,1.611389 -2.75654,3.338217 -2.98694,5.570611 -0.2704,2.619933 0.37929,4.69953 2.04816,6.555699 1.21792,1.354602 2.38998,2.077511 7.73165,4.768643 9.31558,4.69321 11.6039,6.640128 12.6856,10.793069 1.94035,7.449575 -2.69482,14.219818 -10.93005,15.964691 -2.67639,0.567072 -6.96925,0.568055 -9.54714,0.0022 z M 124.48,64.153584 c 0,-20.698995 -0.10947,-31.120208 -0.33126,-31.534621 C 123.83272,32.028477 123.38298,32 114.37347,32 h -9.44401 l 0.0953,-2 0.0953,-2 21.51334,-0.08225 21.51334,-0.08225 0.18892,0.752753 c 0.10391,0.414015 0.14291,1.315027 0.0867,2.00225 L 148.32,31.84 l -9.6,0.171971 c -5.28,0.09459 -9.63529,0.202586 -9.67843,0.24 -0.0431,0.03742 -0.11513,14.144029 -0.16,31.348029 l -0.0816,31.28 -2.16,0.09462 -2.16,0.09462 z M 208.78754,94.64 c -0.0838,-0.22 -0.11528,-16.168 -0.07,-35.44 l 0.0824,-35.04 1.89031,-0.09747 c 1.29567,-0.06681 1.97362,0.03386 2.1551,0.32 0.14563,0.229609 0.26699,10.389471 0.26969,22.577471 0.003,13.49856 0.12161,22.16 0.30351,22.16 0.16424,0 5.07609,-4.968 10.91523,-11.04 l 10.61662,-11.04 h 2.52477 c 1.38862,0 2.52477,0.127894 2.52477,0.284211 0,0.15632 -4.5,4.880304 -10,10.497751 -5.5,5.617443 -10.49785,10.7472 -11.10634,11.399459 l -1.10633,1.185923 11.90633,11.921968 c 6.54855,6.557081 11.9064,12.099426 11.9064,12.316325 0,0.281348 -0.77438,0.394362 -2.70216,0.394362 -2.3591,0 -2.80062,-0.09141 -3.47774,-0.72 -0.42657,-0.396 -5.43595,-5.544 -11.13195,-11.44 C 218.59214,76.984 213.74913,72.044845 213.52588,71.904099 213.20089,71.6992 213.12,73.878387 213.12,82.837926 c 0,6.154352 -0.0874,11.417508 -0.19424,11.695901 -0.24694,0.643504 -3.89786,0.737171 -4.13822,0.106173 z m 41.60113,0.0032 C 250.3042,94.421373 250.27219,79.336 250.31754,61.12 L 250.4,28 l 2.16,-0.09462 c 1.188,-0.05204 2.19422,-0.05204 2.23606,0 0.0418,0.05204 0.14983,14.206621 0.24,31.454621 l 0.16393,31.36 13.28,0.16 13.28,0.16 v 1.92 1.92 l -15.60887,0.08305 c -12.31664,0.06553 -15.64126,-0.0019 -15.76245,-0.32 z"
         id="path16" />
    </g>
  </g>
</svg>
